<?xml version="1.0" encoding="UTF-8"?>
<svg width="18px" height="19px" viewBox="0 0 18 19" version="1.1" xmlns="http://www.w3.org/2000/svg" xmlns:xlink="http://www.w3.org/1999/xlink">
    <!-- Generator: Sketch 53.2 (72643) - https://sketchapp.com -->
    <title>Combined Shape</title>
    <desc>Created with Sketch.</desc>
    <g id="Page-1" stroke="none" stroke-width="1" fill="none" fill-rule="evenodd">
        <g id="Artboard" fill="#FFFFFF">
            <path d="M6.80094171,7.51536475 L6.80094171,0.484672692 C6.80094171,-0.759767069 7.80975946,-1.76858482 9.05419922,-1.76858482 C10.298639,-1.76858482 11.3074567,-0.759767069 11.3074567,0.484672692 L11.3074567,7.51536475 L18.3381488,7.51536475 C19.5825885,7.51536475 20.5914063,8.5241825 20.5914063,9.76862226 C20.5914063,11.013062 19.5825885,12.0218798 18.3381488,12.0218798 L11.3074567,12.0218798 L11.3074567,19.0525718 C11.3074567,20.2970116 10.298639,21.3058293 9.05419922,21.3058293 C7.80975946,21.3058293 6.80094171,20.2970116 6.80094171,19.0525718 L6.80094171,12.0218798 L-0.229750349,12.0218798 C-1.47419011,12.0218798 -2.48300786,11.013062 -2.48300786,9.76862226 C-2.48300786,8.5241825 -1.47419011,7.51536475 -0.229750349,7.51536475 L6.80094171,7.51536475 Z" id="Combined-Shape" transform="translate(9.054199, 9.768622) rotate(-315.000000) translate(-9.054199, -9.768622) "></path>
        </g>
    </g>
</svg>